<svg width="73" height="69" viewBox="0 0 73 69" fill="none" xmlns="http://www.w3.org/2000/svg">
<rect width="50" height="50" transform="matrix(0.727013 -0.686624 0.727013 0.686624 0 34.4934)" fill="#D9E1E2"/>
<path fill-rule="evenodd" clip-rule="evenodd" d="M37.5 25.9411C37.5 26.721 36.8484 27.389 36 27.389C35.1516 27.389 34.5 26.721 34.5 25.9411C34.5 25.1612 35.1516 24.4932 36 24.4932C36.8484 24.4932 37.5 25.1612 37.5 25.9411ZM38.1149 27.2471C37.672 27.9333 36.8903 28.389 36 28.389C35.1612 28.389 34.4189 27.9846 33.9654 27.364C33.8767 27.4444 33.759 27.4934 33.6298 27.4934H31.0242L31.7767 28.7539C31.9182 28.991 31.8407 29.298 31.6036 29.4395C31.3665 29.581 31.0595 29.5036 30.918 29.2665L29.7141 27.2497L29.5166 26.9188C29.4566 26.8245 29.3352 26.679 29.1872 26.5759C29.0376 26.4716 28.921 26.4495 28.8301 26.4712C28.7021 26.5019 28.5899 26.5883 28.494 26.7236C28.4159 26.8338 28.3659 26.9534 28.3403 27.0381C28.3533 27.1194 28.3975 27.2765 28.4996 27.5187C28.6163 27.7954 28.7826 28.1249 28.9757 28.4741C29.3614 29.1715 29.8349 29.9132 30.1775 30.4051C30.3867 30.7056 30.5931 30.7917 30.7374 30.8148C30.8946 30.84 31.0295 30.7981 31.0909 30.7656L32.6585 29.7652L33.3616 29.3165L33.426 30.1481L33.7771 34.6859L33.7786 34.7052V34.7245V41.4472C33.7786 41.543 33.8177 41.7158 33.9387 41.8565C34.0439 41.9789 34.2502 42.1236 34.6832 42.1236C35.1162 42.1236 35.3225 41.9789 35.4277 41.8565C35.5487 41.7158 35.5878 41.543 35.5878 41.4472V35.3967C35.5878 35.1206 35.8116 34.8967 36.0878 34.8967C36.3639 34.8967 36.5878 35.1206 36.5878 35.3967V41.4472C36.5878 41.5587 36.627 41.7408 36.7332 41.8819C36.8212 41.9989 36.9791 42.1236 37.3168 42.1236C37.6545 42.1236 37.8124 41.9989 37.9004 41.8819C38.0066 41.7408 38.0458 41.5587 38.0458 41.4472V34.7245V34.7052L38.0473 34.6859L38.3984 30.1481L38.4547 29.4207L39.1128 29.7357C39.2598 29.806 39.7269 30.0672 40.5705 30.6055C40.8585 30.7893 41.0768 30.7742 41.2387 30.7161C41.4226 30.6501 41.5701 30.5121 41.6421 30.412L43.5543 27.4166C43.6162 27.2927 43.6741 27.1204 43.6866 26.9554C43.6972 26.8172 43.6738 26.72 43.6352 26.6561C43.603 26.6028 43.5306 26.5221 43.3299 26.4673C43.1488 26.4177 43.0389 26.4259 42.9731 26.4427C42.9089 26.459 42.8497 26.493 42.7839 26.5571C42.7129 26.6264 42.6437 26.7215 42.5614 26.852C42.5401 26.8858 42.5155 26.9261 42.4889 26.9697L42.4889 26.9698L42.4888 26.9698C42.4296 27.067 42.3603 27.1805 42.2953 27.2744L41.0691 29.1189C40.9162 29.3489 40.6058 29.4114 40.3759 29.2585C40.1459 29.1056 40.0834 28.7953 40.2363 28.5653L40.9489 27.4934H38.5458C38.3623 27.4934 38.2018 27.3945 38.1149 27.2471ZM38.4331 26.5061C38.4768 26.3248 38.5 26.1356 38.5 25.9411C38.5 24.5891 37.3807 23.4932 36 23.4932C34.6193 23.4932 33.5 24.5891 33.5 25.9411C33.5 26.131 33.5221 26.3159 33.5639 26.4934H30.4272L30.3721 26.401L30.3722 26.4009L30.3664 26.3917C30.2498 26.2057 30.039 25.9506 29.7589 25.7554C29.4784 25.5599 29.0683 25.386 28.5974 25.4987C28.1636 25.6025 27.8661 25.8802 27.6781 26.1455C27.5968 26.2602 27.5311 26.3792 27.4794 26.4934H25V24.4724C25 24.1962 24.7761 23.9724 24.5 23.9724C24.2239 23.9724 24 24.1962 24 24.4724V26.9934V46.9934C24 47.2695 24.2239 47.4934 24.5 47.4934C24.7761 47.4934 25 47.2695 25 46.9934V27.4934H27.4248C27.4676 27.6329 27.5218 27.7735 27.5781 27.9071C27.7139 28.2292 27.8987 28.5929 28.1006 28.958C28.505 29.6892 28.9971 30.4601 29.3569 30.9766C29.7094 31.4828 30.1469 31.7329 30.579 31.8022C30.9916 31.8684 31.3612 31.7637 31.5964 31.6286L31.6065 31.6228L31.6163 31.6165L32.4933 31.0569L32.7786 34.7438V41.4472C32.7786 41.7435 32.88 42.1589 33.1804 42.5084C33.4965 42.8762 33.9926 43.1236 34.6832 43.1236C35.291 43.1236 35.7481 42.932 36.0645 42.6354C36.3484 42.9269 36.763 43.1236 37.3168 43.1236C37.9623 43.1236 38.4189 42.8562 38.6996 42.483C38.9621 42.134 39.0458 41.7278 39.0458 41.4472V34.7438L39.3345 31.0131C39.5237 31.1279 39.7554 31.2716 40.0325 31.4485C40.5873 31.8025 41.1298 31.8176 41.5766 31.6573C41.9971 31.5063 42.3035 31.2122 42.4676 30.9766L42.4733 30.9684L42.4787 30.9599L44.41 27.9347L44.4217 27.9164L44.4317 27.8971C44.4905 27.7845 44.5491 27.6467 44.5954 27.4934H47V46.9934C47 47.2695 47.2239 47.4934 47.5 47.4934C47.7761 47.4934 48 47.2695 48 46.9934V26.9934V24.4724C48 24.1962 47.7761 23.9724 47.5 23.9724C47.2239 23.9724 47 24.1962 47 24.4724V26.4934H44.6398C44.6087 26.374 44.5608 26.2542 44.4909 26.1386C44.3054 25.8319 44.0004 25.6139 43.5937 25.5027C43.2832 25.4178 42.9937 25.4054 42.726 25.4737C42.4566 25.5424 42.2481 25.6828 42.0856 25.8414C41.9283 25.9948 41.8088 26.1707 41.7155 26.3185C41.6751 26.3827 41.6416 26.4378 41.6113 26.4877L41.6113 26.4878L41.6079 26.4934H38.5458C38.507 26.4934 38.4693 26.4978 38.4331 26.5061Z" fill="#0A111B"/>
</svg>
