<svg width="73" height="69" viewBox="0 0 73 69" fill="none" xmlns="http://www.w3.org/2000/svg">
<rect width="50" height="50" transform="matrix(0.727013 -0.686624 0.727013 0.686624 0 34.4934)" fill="#D9E1E2"/>
<path fill-rule="evenodd" clip-rule="evenodd" d="M24.9996 23C24.7235 23 24.4996 23.2239 24.4996 23.5C24.4996 23.7761 24.7235 24 24.9996 24H26.987L27.5302 25.8589L28.8918 30.518L30.2533 35.1772L31.161 38.2833L31.2662 38.643H31.641H44.9369C45.2131 38.643 45.4369 38.4192 45.4369 38.143C45.4369 37.8669 45.2131 37.643 44.9369 37.643H32.0158L31.4003 35.5369H34.8503H40.8106H45.3954H45.8L45.8844 35.1412L47.8712 25.8229L48 25.2186H47.3822H41.5747H33.9334H28.385L27.8417 23.3598L27.7366 23H27.3618H24.9996ZM34.2987 34.5369H31.1081L30.0387 30.8778H33.9386L34.2987 34.5369ZM33.8402 29.8778H29.7465L28.6772 26.2186H33.4802L33.8402 29.8778ZM34.8451 29.8778L34.485 26.2186H41.032L40.732 29.8778H34.8451ZM41.7353 29.8778L42.0354 26.2186H46.7643L45.9841 29.8778H41.7353ZM41.6533 30.8778H45.7709L44.9908 34.5369H41.3533L41.6533 30.8778ZM40.65 30.8778L40.3499 34.5369H35.3036L34.9435 30.8778H40.65ZM42.0992 40.5315L42.0992 40.5315C42.3517 40.2719 42.6905 40.1193 43.0603 40.1193C43.4301 40.1193 43.7689 40.2719 44.0213 40.5315C44.2743 40.7916 44.4336 41.1531 44.4336 41.5598C44.4336 41.9665 44.2743 42.328 44.0214 42.588C43.7689 42.8477 43.4301 43.0003 43.0603 43.0003C42.6904 43.0003 42.3517 42.8477 42.0993 42.5881C41.8463 42.328 41.687 41.9664 41.687 41.5598C41.687 41.153 41.8463 40.7916 42.0992 40.5315ZM33.2055 40.5321L33.2061 40.5315C33.4585 40.2719 33.7974 40.1193 34.1671 40.1193C34.5369 40.1193 34.8758 40.2719 35.1282 40.5315L35.1282 40.5315C35.3811 40.7916 35.5405 41.1531 35.5405 41.5598C35.5405 41.9665 35.3811 42.328 35.1282 42.588L35.1282 42.5881C34.8757 42.8477 34.5369 43.0003 34.1671 43.0003C33.7973 43.0003 33.4585 42.8477 33.2061 42.5881L33.2061 42.5881C32.9532 42.328 32.7938 41.9664 32.7938 41.5598C32.7938 41.1526 32.9534 40.7908 33.2055 40.5321ZM36.5405 41.5598C36.5405 42.2336 36.2749 42.8433 35.8451 43.2852C35.4154 43.7271 34.8223 44.0003 34.1671 44.0003C33.5119 44.0003 32.9189 43.7271 32.4892 43.2852C32.0594 42.8433 31.7938 42.2335 31.7938 41.5598C31.7938 40.886 32.0594 40.2755 32.4892 39.8343C32.9189 39.3924 33.5119 39.1193 34.1671 39.1193C34.8223 39.1193 35.4154 39.3924 35.8451 39.8343C36.2749 40.2762 36.5405 40.886 36.5405 41.5598ZM41.3823 39.8343C41.8121 39.3924 42.4051 39.1193 43.0603 39.1193C43.7155 39.1193 44.3085 39.3924 44.7383 39.8343C45.168 40.2762 45.4336 40.886 45.4336 41.5598C45.4336 42.2336 45.168 42.8433 44.7383 43.2852C44.3085 43.7271 43.7155 44.0003 43.0603 44.0003C42.405 44.0003 41.8121 43.7271 41.3823 43.2852C40.9526 42.8433 40.687 42.2335 40.687 41.5598C40.687 40.886 40.9526 40.2762 41.3823 39.8343Z" fill="#0A111B"/>
</svg>
