<svg width="73" height="70" viewBox="0 0 73 70" fill="none" xmlns="http://www.w3.org/2000/svg">
<rect width="50" height="50" transform="matrix(0.727013 -0.686624 0.727013 0.686624 0 35.1558)" fill="#D9E1E2"/>
<path fill-rule="evenodd" clip-rule="evenodd" d="M30.0982 31.0203L28.5097 27.4897C28.8345 27.3442 29.1215 27.2874 29.3421 27.2874H32.8772V30.6561H31.3596H31.3466L31.3337 30.6568C30.9716 30.6756 30.5382 30.7868 30.0982 31.0203ZM33.8772 30.6561V27.2874H38.2573V30.6561H33.8772ZM39.2573 30.6561V27.2874H42.3889C42.6895 27.2874 43.0759 27.3656 43.4993 27.5681L42.0222 30.9964C41.6172 30.7723 41.1905 30.6561 40.7749 30.6561H39.2573ZM42.8376 31.631L44.3483 28.1249C45.0367 28.7081 45.7341 29.6503 46.2416 31.1043L43.7184 32.9562C43.4747 32.4225 43.174 31.9806 42.8376 31.631ZM44.0704 33.9383L46.5428 32.1237C46.7977 33.156 46.9641 34.3922 46.9948 35.865H46.5V35.6929V35.1929H46H44.3055C44.2549 34.7403 44.1751 34.3223 44.0704 33.9383ZM46.5 36.865H46.9948C46.9642 38.3282 46.7995 39.5502 46.5472 40.566L44.0751 38.7006C44.1715 38.3788 44.2481 38.0461 44.2988 37.656H46H46.5V37.156V36.865ZM43.7068 39.6754L46.2418 41.5883C45.7355 43.0151 45.0406 43.9241 44.3551 44.4811L42.8385 40.9343C43.1653 40.6026 43.4629 40.1844 43.7068 39.6754ZM42.0192 41.5616L43.4961 45.0158C43.0776 45.2031 42.6928 45.2747 42.3889 45.2747H39.2573V41.9059H40.7749C41.1742 41.9059 41.6037 41.7902 42.0192 41.5616ZM38.2573 41.9059V45.2747H33.8772V41.9059H38.2573ZM32.8772 41.9059V45.2747H29.3513C29.1229 45.2656 28.8353 45.2062 28.5159 45.0695L30.1036 41.5983C30.5522 41.8153 30.9933 41.9059 31.3596 41.9059H32.8772ZM29.2644 41.029L27.6571 44.5429C26.9751 43.9902 26.2647 43.0656 25.7494 41.589L28.2771 39.6773C28.551 40.2488 28.8932 40.6927 29.2644 41.029ZM27.9122 38.6995L25.4476 40.5634C25.1988 39.5471 25.0355 38.3258 25.0051 36.865H25.5V37.156V37.656H26H27.6972C27.7456 38.0489 27.8192 38.3807 27.9122 38.6995ZM25.5 35.865H25.0051C25.0368 34.3377 25.2134 33.0606 25.4813 32L27.9502 33.8911C27.8369 34.273 27.7498 34.6878 27.6956 35.156H26H25.5V35.656V35.865ZM28.3263 32.9195L25.7896 30.9766C26.3021 29.5321 26.9945 28.6012 27.6594 28.037L29.2708 31.6184C28.9199 31.9507 28.5936 32.379 28.3263 32.9195ZM26.5 36.156H27.6333C27.6322 36.2269 27.6316 36.2971 27.6316 36.365C27.6316 36.4509 27.6325 36.5516 27.6344 36.656H26.5V36.365V36.156ZM45.5 36.656H44.3654C44.3674 36.5514 44.3684 36.4507 44.3684 36.365C44.3684 36.3072 44.368 36.2498 44.3672 36.1929H45.5V36.365V36.656ZM29.3421 26.2874C28.8178 26.2874 28.2071 26.467 27.5986 26.8453C26.5183 27.5169 25.4185 28.8274 24.7254 31.0044C24.279 32.4064 24 34.1703 24 36.365C24 38.4918 24.262 40.1972 24.6852 41.5547C25.3777 43.7761 26.5038 45.068 27.6066 45.7253C28.2154 46.0881 28.8171 46.2568 29.3248 46.2744L29.3334 46.2747H29.3421H33.3772H38.7573H42.3889C42.9779 46.2747 43.6859 46.0977 44.3946 45.6726C45.5143 45.0011 46.6222 43.7209 47.3069 41.5567C47.7365 40.199 48 38.4931 48 36.365C48 34.2368 47.7364 32.5188 47.3075 31.1437C46.6243 28.9533 45.5198 27.6304 44.4039 26.9276C43.6972 26.4825 42.9862 26.2874 42.3889 26.2874H38.7573H33.3772H29.3421ZM30.1853 32.1502C30.6339 31.8045 31.0798 31.6742 31.3737 31.6561H33.3772H38.7573H40.7749C41.1076 31.6561 41.515 31.7938 41.9161 32.135C42.3335 32.4901 42.7387 33.063 43.0152 33.9008C43.1832 34.4098 43.3032 35.0152 43.3485 35.7248C43.3616 35.9295 43.3684 36.1429 43.3684 36.365C43.3684 36.5924 43.3607 36.9225 43.347 37.1215C43.3014 37.7805 43.1859 38.2317 43.0172 38.723C42.7395 39.5314 42.3321 40.0793 41.9202 40.4224C41.4986 40.7734 41.0791 40.9059 40.7749 40.9059H38.7573H33.3772H31.3596C31.0668 40.9059 30.62 40.8009 30.1719 40.4789C29.727 40.1592 29.2692 39.6169 28.969 38.7258C28.8069 38.2449 28.6952 37.7957 28.6517 37.1237C28.6388 36.9247 28.6316 36.5938 28.6316 36.365C28.6316 36.1399 28.6386 35.89 28.6516 35.6882C28.699 34.9523 28.8277 34.3794 29.0063 33.8765C29.3079 33.0269 29.7509 32.485 30.1853 32.1502ZM31 32.656H30.5V33.156V35.0126V37.5494V39.156V39.656H31H36H41H41.5V39.156V37.5494V35.0126V33.156V32.656H41H36H31ZM31.5 34.5126V33.656H35.5V34.219C34.6374 34.441 34 35.2241 34 36.156C34 37.0879 34.6374 37.871 35.5 38.093V38.656H31.5V38.0494H32.5H33V37.5494V35.0126V34.5126H32.5H31.5ZM36.5 38.093V38.656H40.5V38.0494H39.5H39V37.5494V35.0126V34.5126H39.5H40.5V33.656H36.5V34.219C37.3626 34.441 38 35.2241 38 36.156C38 37.0879 37.3626 37.871 36.5 38.093ZM40 35.5126H40.5V37.0494H40V35.5126ZM32 37.0494H31.5V35.5126H32V37.0494ZM37 36.156C37 36.7083 36.5523 37.156 36 37.156C35.4477 37.156 35 36.7083 35 36.156C35 35.6037 35.4477 35.156 36 35.156C36.5523 35.156 37 35.6037 37 36.156Z" fill="#0A111B"/>
</svg>
