<svg width="73" height="70" viewBox="0 0 73 70" fill="none" xmlns="http://www.w3.org/2000/svg">
<rect width="50" height="50" transform="matrix(0.727013 -0.686624 0.727013 0.686624 0 34.8438)" fill="#D9E1E2"/>
<path fill-rule="evenodd" clip-rule="evenodd" d="M30.4338 25.4791C27.067 25.9074 24.6122 29.2805 25.0577 33.101C25.4178 36.1884 27.5495 38.5174 30.1312 39.0713V36.676L27.8117 34.2241C27.622 34.0235 27.6308 33.707 27.8314 33.5172C28.032 33.3275 28.3484 33.3363 28.5382 33.5369L30.1312 35.2208V35.1681V29.8676C30.1312 29.5915 30.355 29.3676 30.6312 29.3676C30.9073 29.3676 31.1312 29.5915 31.1312 29.8676V33.9162L33.7104 31.2024C33.9007 31.0022 34.2172 30.9942 34.4173 31.1844C34.6175 31.3747 34.6255 31.6911 34.4353 31.8913L31.1312 35.3678V36.4769V39.1943C31.4274 39.2041 31.727 39.1905 32.0284 39.1521C32.4124 39.1033 32.7833 39.0168 33.1388 38.8963C32.8837 38.5558 32.7325 38.1329 32.7325 37.6747C32.7325 36.5487 33.6454 35.6359 34.7714 35.6359H36.7729C36.7741 35.5698 36.7885 35.5028 36.8174 35.4385C37.3395 34.276 37.5677 32.93 37.4045 31.5303C36.9589 27.7098 33.8006 25.0508 30.4338 25.4791ZM37.8165 35.6359C38.3492 34.3565 38.5713 32.9033 38.3965 31.4041C37.8974 27.1246 34.318 23.977 30.318 24.4859C26.318 24.9947 23.5667 28.9477 24.0657 33.2272C24.479 36.7706 27.0041 39.5381 30.1312 40.0963V44.5573C29.9233 44.5752 29.6881 44.6134 29.4478 44.6942C29.1045 44.3116 28.5131 43.8972 27.6879 43.8972C27.0131 43.8972 26.4212 44.1396 25.9978 44.57C25.5757 44.999 25.3483 45.5868 25.3483 46.2295C25.3483 46.6859 25.4324 47.0954 25.5444 47.4309H24.8629C24.5867 47.4309 24.3629 47.6548 24.3629 47.9309C24.3629 48.2071 24.5867 48.4309 24.8629 48.4309H26.3389H32.4707H33.6927L35.6939 48.4309L41.5415 48.4309L43.5705 48.4309L43.9329 48.4309H46.3244H47.5078C47.784 48.4309 48.0078 48.2071 48.0078 47.9309C48.0078 47.6548 47.784 47.4309 47.5078 47.4309H46.3244H44.9742C45.0266 47.2791 45.0551 47.116 45.0551 46.9464V44.843H45.4775C46.6036 44.843 47.5164 43.9302 47.5164 42.8042C47.5164 41.6782 46.6036 40.7653 45.4775 40.7653H44.0704V39.7136H44.493C45.6191 39.7136 46.5319 38.8007 46.5319 37.6747C46.5319 36.5487 45.619 35.6359 44.493 35.6359H37.8165ZM43.0704 39.7136V40.7653H36.1939V39.7136H43.0704ZM35.1939 39.7136V40.7653H33.7868C32.6607 40.7653 31.7479 41.6782 31.7479 42.8042C31.7479 43.9302 32.6607 44.843 33.7868 44.843H34.2094V46.9464C34.2094 47.116 34.2378 47.2791 34.2902 47.4309H33.6927H33.2402L33.2403 47.4207C33.2403 46.5417 32.9569 45.8164 32.468 45.3075C32.1002 44.9248 31.6338 44.6834 31.1312 44.588V40.1974C31.4647 40.2056 31.8029 40.1888 32.1442 40.1454C32.7556 40.0676 33.3398 39.9083 33.8886 39.6785C33.9468 39.6541 33.9981 39.6201 34.0414 39.579C34.2681 39.6659 34.5142 39.7136 34.7714 39.7136H35.1939ZM41.5415 47.4309H42.1668C42.1144 47.2791 42.0859 47.116 42.0859 46.9464V44.843H37.1785V46.9464C37.1785 47.116 37.15 47.2791 37.0976 47.4309H41.5415ZM43.0859 46.9464C43.0859 47.214 43.3029 47.4309 43.5705 47.4309C43.8381 47.4309 44.0551 47.214 44.0551 46.9464V45.1827H43.0859V46.9464ZM35.6939 47.4309C35.4263 47.4309 35.2094 47.214 35.2094 46.9464V45.1827H36.1785V46.9464C36.1785 47.214 35.9615 47.4309 35.6939 47.4309ZM26.622 47.4309H32.2404L32.2403 47.4207C32.2403 46.7608 32.0314 46.2965 31.7469 46.0004C31.4609 45.7027 31.067 45.5413 30.6312 45.5413C30.2685 45.5413 29.8745 45.5496 29.5313 45.7468L29.0846 46.0035L28.8414 45.5493C28.7337 45.3483 28.3288 44.8972 27.6879 44.8972C27.2589 44.8972 26.931 45.0473 26.7106 45.2713C26.4888 45.4968 26.3483 45.8251 26.3483 46.2295C26.3483 46.7527 26.4994 47.1819 26.622 47.4309ZM33.7325 37.6747C33.7325 37.101 34.1976 36.6359 34.7714 36.6359H44.493C45.0668 36.6359 45.5319 37.101 45.5319 37.6747C45.5319 38.2485 45.0668 38.7136 44.493 38.7136H34.7714C34.1976 38.7136 33.7325 38.2485 33.7325 37.6747ZM33.7868 41.7653C33.213 41.7653 32.7479 42.2305 32.7479 42.8042C32.7479 43.3779 33.213 43.843 33.7868 43.843H45.4775C46.0513 43.843 46.5164 43.3779 46.5164 42.8042C46.5164 42.2305 46.0513 41.7653 45.4775 41.7653H33.7868Z" fill="#0A111B"/>
</svg>
