<svg width="73" height="69" viewBox="0 0 73 69" fill="none" xmlns="http://www.w3.org/2000/svg">
<rect width="50" height="50" transform="matrix(0.727013 -0.686624 0.727013 0.686624 0 34.5061)" fill="#D9E1E2"/>
<path fill-rule="evenodd" clip-rule="evenodd" d="M31.9704 24.0063C31.9704 23.7302 32.1942 23.5063 32.4704 23.5063C33.1665 23.5063 33.6998 23.6634 34.0445 24.0307C34.3863 24.395 34.4376 24.8571 34.4376 25.2024L34.4376 25.2169C34.4377 25.361 34.4377 25.5394 34.4145 25.7107C34.3899 25.8926 34.3351 26.1044 34.1984 26.2996C33.9059 26.7169 33.3926 26.8599 32.7479 26.8599C32.4094 26.8599 32.3049 26.925 32.2735 26.9547C32.2489 26.978 32.1772 27.067 32.1772 27.4016C32.1772 27.6036 32.2176 27.7241 32.2576 27.7963C32.2967 27.8668 32.3501 27.9176 32.42 27.9584C32.5818 28.0529 32.7973 28.079 33.0299 28.0996C33.305 28.1239 33.5083 28.3666 33.4839 28.6417C33.4596 28.9167 33.2169 29.12 32.9418 29.0957C32.935 29.0951 32.928 29.0944 32.9207 29.0938C32.709 29.0753 32.2866 29.0384 31.9159 28.822C31.7132 28.7037 31.5212 28.5303 31.3831 28.2813C31.2459 28.0339 31.1772 27.7397 31.1772 27.4016C31.1772 26.9645 31.2642 26.5326 31.5866 26.228C31.9022 25.9297 32.333 25.8599 32.7479 25.8599C33.2868 25.8599 33.3726 25.7356 33.3793 25.726L33.3795 25.7257C33.3914 25.7086 33.411 25.6696 33.4235 25.5767C33.4368 25.4788 33.4376 25.3645 33.4376 25.2024C33.4376 24.9303 33.3898 24.7944 33.3153 24.715C33.2436 24.6386 33.0432 24.5063 32.4704 24.5063C32.1942 24.5063 31.9704 24.2825 31.9704 24.0063ZM36.3722 24.0063C36.3722 23.7302 36.596 23.5063 36.8722 23.5063C37.5683 23.5063 38.1016 23.6634 38.4463 24.0307C38.7882 24.395 38.8394 24.8571 38.8394 25.2024L38.8395 25.2169C38.8395 25.361 38.8395 25.5394 38.8163 25.7107C38.7917 25.8926 38.7369 26.1044 38.6002 26.2996C38.3077 26.7169 37.7944 26.8599 37.1498 26.8599C36.8113 26.8599 36.7067 26.925 36.6753 26.9547C36.6507 26.978 36.5791 27.067 36.5791 27.4016C36.5791 27.6036 36.6194 27.7241 36.6594 27.7963C36.6986 27.8668 36.752 27.9176 36.8219 27.9584C36.9836 28.0529 37.1992 28.079 37.4318 28.0996C37.7068 28.1239 37.9101 28.3666 37.8858 28.6417C37.8614 28.9167 37.6187 29.12 37.3437 29.0957C37.3369 29.0951 37.3298 29.0944 37.3225 29.0938C37.1108 29.0753 36.6884 29.0384 36.3177 28.822C36.115 28.7037 35.923 28.5303 35.7849 28.2813C35.6477 28.0339 35.5791 27.7397 35.5791 27.4016C35.5791 26.9645 35.666 26.5326 35.9884 26.228C36.304 25.9297 36.7348 25.8599 37.1498 25.8599C37.6886 25.8599 37.7744 25.7356 37.7811 25.726L37.7813 25.7257C37.7933 25.7086 37.8128 25.6696 37.8254 25.5767C37.8386 25.4788 37.8394 25.3645 37.8394 25.2024C37.8394 24.9303 37.7916 24.7944 37.7171 24.715C37.6454 24.6386 37.445 24.5063 36.8722 24.5063C36.596 24.5063 36.3722 24.2825 36.3722 24.0063ZM23.9995 30.6934H24.4995H44.0103H44.5103V31.1934V33.8333C45.0192 33.8574 45.7025 33.9424 46.3278 34.2414C46.7725 34.4541 47.1988 34.7796 47.511 35.2726C47.8232 35.7657 48 36.3926 48 37.1736C48 38.4619 47.4533 39.3303 46.747 39.868C46.0631 40.3887 45.2546 40.5828 44.705 40.6054L44.6947 40.6059H44.6844H44.6826H44.6807H44.6788H44.6769H44.675H44.673H44.6711H44.6691H44.6672H44.6652H44.6632H44.6612H44.6592H44.6571H44.6551H44.653H44.651H44.6489H44.6468H44.6447H44.6426H44.6405H44.6383H44.6362H44.634H44.6318H44.6296H44.6274H44.6252H44.623H44.6207H44.6185H44.6162H44.6139H44.6116H44.6093H44.607H44.6047H44.6024H44.6H44.5977H44.5953H44.5929H44.5905H44.5881H44.5857H44.5832H44.5808H44.5783H44.5759H44.5734H44.5709H44.5684H44.5659H44.5633H44.5608H44.5582H44.5557H44.5531H44.5505H44.5479H44.5453H44.5427H44.5401H44.5374H44.5348H44.5321H44.5294H44.5267H44.524H44.5213H44.5186H44.5158H44.5131H44.5103H44.5076H44.5048H44.502H44.4992H44.4964H44.4936H44.4907H44.4879H44.485H44.4821H44.4793H44.4764H44.4735H44.4706H44.4676H44.4647H44.4617H44.4588H44.4558H44.4528H44.4499H44.4468H44.4438H44.4408H44.4378H44.4347H44.4317H44.4286H44.4255H44.4224H44.4193H44.4162H44.4131H44.41H44.4068H44.4037H44.4005H44.3974H44.3942H44.391H44.3878H44.3846H44.3813H44.3781H44.3749H44.3716H44.3683H44.3651H44.3618H44.3585H44.3552H44.3519H44.3485H44.3452H44.3418H44.3385H44.3351H44.3317H44.3284H44.325H44.3215H44.3181H44.3147H44.3113H44.3078H44.3044H44.3009H44.2974H44.2939H44.2904H44.2869H44.2834H44.2799H44.2763H44.2728H44.2692H44.2657H44.2621H44.2585H44.2549H44.2513H44.2477H44.2441H44.2404H44.2368H44.2331H44.2295H44.2258H44.2221H44.2184H44.2147H44.211H44.2073H44.2036H44.1998H44.1961H44.1923H44.1886H44.1848H44.181H44.1772H44.1734H44.1696H44.1658H44.1619H44.1581H44.1543H44.1504H44.1465H44.1427H44.1388H44.1349H44.131H44.1271H44.1231H44.1192H44.1153H44.1113H44.1074H44.1034H44.0994H44.0955H44.0915H44.0875H44.0835H44.0794H44.0754H44.0714H44.0673H44.0633H44.0592H44.0552H44.0511H44.047H44.0429H44.0388H44.0347H44.0306H44.0264H44.0223H44.0182H44.014H44.0098H44.0057H44.0015H43.9973H43.9931H43.9889H43.9847H43.9805H43.9763H43.972H43.9678H43.9635H43.9593H43.955H43.9507H43.9464H43.9421H43.9378H43.9335H43.9292H43.9249H43.9206H43.9162H43.9119H43.9075H43.9032H43.8988H43.8944H43.89H43.8856H43.8812H43.8768H43.8724H43.868H43.8635H43.8591H43.8547H43.8502H43.8457H43.8413H43.8368H43.8323H43.8278H43.8233H43.8188H43.8143H43.8098H43.8052H43.8007H43.7962H43.7916H43.787H43.7825H43.7779H43.7733H43.7687H43.7641H43.7595H43.7549H43.7503H43.7457H43.7411H43.7364H43.7318H43.7271H43.7225H43.7178H43.7131H43.7084H43.7038H43.6991H43.6944H43.6897H43.6849H43.6802H43.6755H43.6708H43.666H43.6613H43.6565H43.6518H43.647H43.6422H43.6374H43.6326H43.6278H43.623H43.6182H43.6134H43.6086H43.6038H43.5989H43.5941H43.5893H43.5844H43.5795H43.5747H43.5698H43.5649H43.56H43.5552H43.5503H43.5454H43.5404H43.5355H43.5306H43.5257H43.5207H43.5158H43.5109H43.5059H43.5009H43.496H43.491H43.486H43.4811H43.4761H43.4711H43.4661H43.4611H43.4561H43.451H43.446H43.441H43.436H43.4309H43.4259H43.4208H43.4158H43.4107H43.4056H43.4005H43.3955H43.3904H43.3853H43.3802H43.3751H43.37H43.3649H43.3598H43.3546H43.3495H43.3444H43.3392H43.3341H43.3289H43.3238H43.3186H43.3134H43.3083H43.3031H43.2979H43.2927H43.2875H43.2823H43.2771H43.2719H43.2667H43.2615H43.2563H43.251H43.2458H43.2406H43.2353H43.2301H43.2248H43.2196H43.2143H43.209H43.2038H43.1985H43.1932H43.1879H43.1826H43.1773H43.172H43.1667H43.1614H43.1561H43.1508H43.1454H43.1401H43.1348H43.1294H43.1241H43.1187H43.1134H43.108H43.1027H43.0973H43.0919H43.0866H43.0812H43.0758H43.0704H43.065H43.0596H43.0542H43.0488H43.0434H43.038H43.0326H43.0272H43.0217H43.0163H43.0109H43.0054H43H42.9946H42.9891H42.9837H42.9782H42.9727H42.9673H42.9618H42.9563H42.9509H42.9454H42.9399H42.9344H42.9289H42.9234H42.9179H42.9124H42.9069H42.9014H42.8959H42.8904H42.8848H42.8793H42.8738H42.8683H42.8627H42.8572H42.8516H42.8461H42.8405H42.835H42.8294H42.8239H42.8183H42.8127H42.812C41.7179 42.5784 39.9844 44.4392 37.3311 45.4717L37.2436 45.5058H37.1498H37.1364H37.123H37.1096H37.0962H37.0828H37.0694H37.056H37.0426H37.0292H37.0158H37.0024H36.989H36.9755H36.9621H36.9487H36.9353H36.9218H36.9084H36.895H36.8816H36.8681H36.8547H36.8413H36.8278H36.8144H36.8009H36.7875H36.7741H36.7606H36.7472H36.7337H36.7203H36.7068H36.6934H36.6799H36.6665H36.653H36.6396H36.6261H36.6127H36.5992H36.5858H36.5723H36.5589H36.5454H36.532H36.5185H36.5051H36.4916H36.4782H36.4647H36.4513H36.4378H36.4244H36.4109H36.3975H36.384H36.3706H36.3571H36.3437H36.3303H36.3168H36.3034H36.2899H36.2765H36.2631H36.2496H36.2362H36.2228H36.2094H36.1959H36.1825H36.1691H36.1557H36.1423H36.1288H36.1154H36.102H36.0886H36.0752H36.0618H36.0484H36.035H36.0216H36.0082H35.9949H35.9815H35.9681H35.9547H35.9413H35.928H35.9146H35.9012H35.8879H35.8745H35.8612H35.8478H35.8345H35.8212H35.8078H35.7945H35.7812H35.7678H35.7545H35.7412H35.7279H35.7146H35.7013H35.688H35.6747H35.6614H35.6481H35.6349H35.6216H35.6083H35.5951H35.5818H35.5686H35.5553H35.5421H35.5288H35.5156H35.5024H35.4892H35.476H35.4628H35.4496H35.4364H35.4232H35.41H35.3968H35.3837H35.3705H35.3574H35.3442H35.3311H35.3179H35.3048H35.2917H35.2786H35.2655H35.2524H35.2393H35.2262H35.2131H35.2001H35.187H35.1739H35.1609H35.1479H35.1348H35.1218H35.1088H35.0958H35.0828H35.0698H35.0568H35.0438H35.0309H35.0179H35.005H34.992H34.9791H34.9662H34.9533H34.9404H34.9275H34.9146H34.9017H34.8888H34.876H34.8631H34.8503H34.8375H34.8246H34.8118H34.799H34.7862H34.7735H34.7607H34.7479H34.7352H34.7224H34.7097H34.697H34.6843H34.6716H34.6589H34.6462H34.6335H34.6209H34.6082H34.5956H34.583H34.5703H34.5577H34.5451H34.5326H34.52H34.5074H34.4949H34.4824H34.4698H34.4573H34.4448H34.4323H34.4199H34.4074H34.3949H34.3825H34.3701H34.3577H34.3452H34.3329H34.3205H34.3081H34.2958H34.2834H34.2711H34.2588H34.2465H34.2342H34.2219H34.2096H34.1974H34.1852H34.1729H34.1607H34.1485H34.1363H34.1242H34.112H34.0999H34.0878H34.0756H34.0635H34.0515H34.0394H34.0273H34.0153H34.0033H33.9912H33.9792H33.9673H33.9553H33.9433H33.9314H33.9195H33.9076H33.8957H33.8838H33.8719H33.8601H33.8482H33.8364H33.8246H33.8128H33.801H33.7893H33.7775H33.7658H33.7541H33.7424H33.7307H33.7191H33.7074H33.6958H33.6842H33.6726H33.661H33.6495H33.6379H33.6264H33.6149H33.6034H33.5919H33.5804H33.569H33.5576H33.5461H33.5348H33.5234H33.512H33.5007H33.4894H33.478H33.4668H33.4555H33.4442H33.433H33.4218H33.4106H33.3994H33.3882H33.3771H33.366H33.3549H33.3438H33.3327H33.3217H33.3106H33.2996H33.2886H33.2777H33.2667H33.2558H33.2448H33.2339H33.2231H33.2122H33.2014H33.1905H33.1797H33.169H33.1582H33.1475H33.1367H33.126H33.1154H33.1047H33.0941H33.0834H33.0728H33.0623H33.0517H33.0412H33.0306H33.0201H33.0097H32.9992H32.9888H32.9784H32.968H32.9576H32.9472H32.9369H32.9266H32.9163H32.9061H32.8958H32.8856H32.8754H32.8652H32.8551H32.8449H32.8348H32.8247H32.8147H32.8046H32.7946H32.7846H32.7746H32.7647H32.7547H32.7448H32.7349H32.7251H32.7152H32.7054H32.6956H32.6858H32.6761H32.6664H32.6567H32.647H32.6373H32.6277H32.6181H32.6085H32.5989H32.5894H32.5799H32.5704H32.5609H32.5515H32.5421H32.5327H32.5233H32.514H32.5047H32.4954H32.4861H32.4768H32.4676H32.4584H32.4493H32.4401H32.431H32.4219H32.4128H32.4038H32.3948H32.3858H32.3768H32.3679H32.359H32.3501H32.3412H32.3324H32.3235H32.3148H32.306H32.2973H32.2886H32.2799H32.2712H32.2626H32.254H32.2454H32.2369H32.2283H32.2199H32.2114H32.2029H32.1945H32.1861H32.1778H32.1694H32.1611H32.1529H32.1446H32.1364H32.1282H32.12H32.1119H32.1038H32.0957H32.0876H32.0796H32.0716H32.0637H32.0557H32.0478H32.0399H32.0321H32.0242H32.0164H32.0087H32.0009H31.9932H31.9855H31.9779H31.9702H31.9626H31.9551H31.9475H31.94H31.9325H31.9251H31.9177H31.9103H31.9029H31.8956H31.8883H31.881H31.8738H31.8666H31.8594H31.8522H31.8451H31.838H31.831H31.824H31.817H31.81H31.8031H31.7962H31.7893H31.7824H31.7756H31.7688H31.7621H31.7554H31.7487H31.742H31.7354H31.7288H31.7223H31.7157H31.7092H31.7028H31.6963H31.6899H31.6836H31.6772H31.6709H31.6647H31.6584H31.6522H31.646H31.6399H31.6338H31.6277H31.6217H31.6157H31.6097H31.6037H31.5978H31.592H31.5861H31.5803H31.5745H31.5688H31.5631H31.5574H31.5518H31.5461H31.5406H31.535H31.5295H31.524H31.5186H31.4337L31.3536 45.4778C29.0488 44.6719 25.3191 41.8499 24.2768 36.8906C24.0986 36.0425 23.9995 35.1337 23.9995 34.1642V34.1557V34.1472V34.1388V34.1303V34.1218V34.1133V34.1049V34.0965V34.088V34.0796V34.0712V34.0627V34.0543V34.0459V34.0375V34.0292V34.0208V34.0124V34.004V33.9957V33.9873V33.979V33.9707V33.9623V33.954V33.9457V33.9374V33.9291V33.9208V33.9126V33.9043V33.896V33.8878V33.8795V33.8713V33.8631V33.8548V33.8466V33.8384V33.8302V33.822V33.8138V33.8057V33.7975V33.7893V33.7812V33.773V33.7649V33.7568V33.7487V33.7406V33.7325V33.7244V33.7163V33.7082V33.7001V33.6921V33.684V33.676V33.6679V33.6599V33.6519V33.6439V33.6359V33.6279V33.6199V33.6119V33.604V33.596V33.5881V33.5801V33.5722V33.5643V33.5563V33.5484V33.5405V33.5326V33.5248V33.5169V33.509V33.5012V33.4933V33.4855V33.4777V33.4698V33.462V33.4542V33.4464V33.4387V33.4309V33.4231V33.4154V33.4076V33.3999V33.3921V33.3844V33.3767V33.369V33.3613V33.3536V33.346V33.3383V33.3306V33.323V33.3154V33.3077V33.3001V33.2925V33.2849V33.2773V33.2697V33.2621V33.2546V33.247V33.2395V33.2319V33.2244V33.2169V33.2094V33.2019V33.1944V33.1869V33.1795V33.172V33.1646V33.1571V33.1497V33.1423V33.1349V33.1275V33.1201V33.1127V33.1053V33.098V33.0906V33.0833V33.0759V33.0686V33.0613V33.054V33.0467V33.0394V33.0322V33.0249V33.0176V33.0104V33.0032V32.9959V32.9887V32.9815V32.9743V32.9672V32.96V32.9528V32.9457V32.9385V32.9314V32.9243V32.9172V32.9101V32.903V32.8959V32.8888V32.8818V32.8747V32.8677V32.8607V32.8537V32.8466V32.8397V32.8327V32.8257V32.8187V32.8118V32.8048V32.7979V32.791V32.7841V32.7772V32.7703V32.7634V32.7565V32.7497V32.7428V32.736V32.7292V32.7224V32.7156V32.7088V32.702V32.6952V32.6885V32.6817V32.675V32.6682V32.6615V32.6548V32.6481V32.6414V32.6348V32.6281V32.6215V32.6148V32.6082V32.6016V32.595V32.5884V32.5818V32.5752V32.5687V32.5621V32.5556V32.5491V32.5426V32.5361V32.5296V32.5231V32.5166V32.5102V32.5037V32.4973V32.4909V32.4844V32.478V32.4717V32.4653V32.4589V32.4526V32.4462V32.4399V32.4336V32.4273V32.421V32.4147V32.4084V32.4022V32.3959V32.3897V32.3835V32.3772V32.371V32.3649V32.3587V32.3525V32.3464V32.3402V32.3341V32.328V32.3219V32.3158V32.3097V32.3036V32.2976V32.2915V32.2855V32.2795V32.2735V32.2675V32.2615V32.2555V32.2496V32.2436V32.2377V32.2318V32.2259V32.22V32.2141V32.2082V32.2023V32.1965V32.1907V32.1848V32.179V32.1732V32.1675V32.1617V32.1559V32.1502V32.1444V32.1387V32.133V32.1273V32.1216V32.116V32.1103V32.1047V32.099V32.0934V32.0878V32.0822V32.0766V32.071V32.0655V32.06V32.0544V32.0489V32.0434V32.0379V32.0324V32.027V32.0215V32.0161V32.0106V32.0052V31.9998V31.9945V31.9891V31.9837V31.9784V31.973V31.9677V31.9624V31.9571V31.9518V31.9466V31.9413V31.9361V31.9308V31.9256V31.9204V31.9152V31.9101V31.9049V31.8998V31.8946V31.8895V31.8844V31.8793V31.8742V31.8692V31.8641V31.8591V31.8541V31.849V31.844V31.8391V31.8341V31.8291V31.8242V31.8193V31.8143V31.8094V31.8046V31.7997V31.7948V31.79V31.7852V31.7803V31.7755V31.7707V31.766V31.7612V31.7565V31.7517V31.747V31.7423V31.7376V31.7329V31.7283V31.7236V31.719V31.7144V31.7098V31.7052V31.7006V31.696V31.6915V31.6869V31.6824V31.6779V31.6734V31.6689V31.6645V31.66V31.6556V31.6512V31.6468V31.6424V31.638V31.6337V31.6293V31.625V31.6207V31.6164V31.6121V31.6078V31.6035V31.5993V31.5951V31.5908V31.5866V31.5825V31.5783V31.5741V31.57V31.5659V31.5618V31.5577V31.5536V31.5495V31.5455V31.5414V31.5374V31.5334V31.5294V31.5254V31.5215V31.5175V31.5136V31.5097V31.5058V31.5019V31.498V31.4942V31.4903V31.4865V31.4827V31.4789V31.4751V31.4714V31.4676V31.4639V31.4602V31.4565V31.4528V31.4491V31.4455V31.4418V31.4382V31.4346V31.431V31.4274V31.4239V31.4203V31.4168V31.4133V31.4098V31.4063V31.4028V31.3994V31.3959V31.3925V31.3891V31.3857V31.3823V31.379V31.3756V31.3723V31.369V31.3657V31.3624V31.3592V31.3559V31.3527V31.3495V31.3463V31.3431V31.3399V31.3368V31.3337V31.3305V31.3274V31.3244V31.3213V31.3182V31.3152V31.3122V31.3092V31.3062V31.3032V31.3003V31.2973V31.2944V31.2915V31.2886V31.2857V31.2829V31.28V31.2772V31.2744V31.2716V31.2688V31.2661V31.2633V31.2606V31.2579V31.2552V31.2525V31.2499V31.2472V31.2446V31.242V31.2394V31.2368V31.2343V31.2317V31.2292V31.2267V31.2242V31.2218V31.2193V31.2169V31.2144V31.212V31.2096V31.2073V31.2049V31.2026V31.2003V31.198V31.1957V31.1934V30.6934ZM43.3106 39.6059H43.3134H43.3186H43.3238H43.3289H43.3341H43.3392H43.3444H43.3495H43.3546H43.3598H43.3649H43.37H43.3751H43.3802H43.3853H43.3904H43.3955H43.4005H43.4056H43.4107H43.4158H43.4208H43.4259H43.4309H43.436H43.441H43.446H43.451H43.4561H43.4611H43.4661H43.4711H43.4761H43.4811H43.486H43.491H43.496H43.5009H43.5059H43.5109H43.5158H43.5207H43.5257H43.5306H43.5355H43.5404H43.5454H43.5503H43.5552H43.56H43.5649H43.5698H43.5747H43.5795H43.5844H43.5893H43.5941H43.5989H43.6038H43.6086H43.6134H43.6182H43.623H43.6278H43.6326H43.6374H43.6422H43.647H43.6518H43.6565H43.6613H43.666H43.6708H43.6755H43.6802H43.6849H43.6897H43.6944H43.6991H43.7038H43.7084H43.7131H43.7178H43.7225H43.7271H43.7318H43.7364H43.7411H43.7457H43.7503H43.7549H43.7595H43.7641H43.7687H43.7733H43.7779H43.7825H43.787H43.7916H43.7962H43.8007H43.8052H43.8098H43.8143H43.8188H43.8233H43.8278H43.8323H43.8368H43.8413H43.8457H43.8502H43.8547H43.8591H43.8635H43.868H43.8724H43.8768H43.8812H43.8856H43.89H43.8944H43.8988H43.9032H43.9075H43.9119H43.9162H43.9206H43.9249H43.9292H43.9335H43.9378H43.9421H43.9464H43.9507H43.955H43.9593H43.9635H43.9678H43.972H43.9763H43.9805H43.9847H43.9889H43.9931H43.9973H44.0015H44.0057H44.0098H44.014H44.0182H44.0223H44.0264H44.0306H44.0347H44.0388H44.0429H44.047H44.0511H44.0552H44.0592H44.0633H44.0673H44.0714H44.0754H44.0794H44.0835H44.0875H44.0915H44.0955H44.0994H44.1034H44.1074H44.1113H44.1153H44.1192H44.1231H44.1271H44.131H44.1349H44.1388H44.1427H44.1465H44.1504H44.1543H44.1581H44.1619H44.1658H44.1696H44.1734H44.1772H44.181H44.1848H44.1886H44.1923H44.1961H44.1998H44.2036H44.2073H44.211H44.2147H44.2184H44.2221H44.2258H44.2295H44.2331H44.2368H44.2404H44.2441H44.2477H44.2513H44.2549H44.2585H44.2621H44.2657H44.2692H44.2728H44.2763H44.2799H44.2834H44.2869H44.2904H44.2939H44.2974H44.3009H44.3044H44.3078H44.3113H44.3147H44.3181H44.3215H44.325H44.3284H44.3317H44.3351H44.3385H44.3418H44.3452H44.3485H44.3519H44.3552H44.3585H44.3618H44.3651H44.3683H44.3716H44.3749H44.3781H44.3813H44.3846H44.3878H44.391H44.3942H44.3974H44.4005H44.4037H44.4068H44.41H44.4131H44.4162H44.4193H44.4224H44.4255H44.4286H44.4317H44.4347H44.4378H44.4408H44.4438H44.4468H44.4499H44.4528H44.4558H44.4588H44.4617H44.4647H44.4676H44.4706H44.4735H44.4764H44.4793H44.4821H44.485H44.4879H44.4907H44.4936H44.4964H44.4992H44.502H44.5048H44.5076H44.5103H44.5131H44.5158H44.5186H44.5213H44.524H44.5267H44.5294H44.5321H44.5348H44.5374H44.5401H44.5427H44.5453H44.5479H44.5505H44.5531H44.5557H44.5582H44.5608H44.5633H44.5659H44.5684H44.5709H44.5734H44.5759H44.5783H44.5808H44.5832H44.5857H44.5881H44.5905H44.5929H44.5953H44.5977H44.6H44.6024H44.6047H44.607H44.6093H44.6116H44.6139H44.6162H44.6185H44.6207H44.623H44.6252H44.6274H44.6296H44.6318H44.634H44.6362H44.6383H44.6405H44.6426H44.6447H44.6468H44.6489H44.651H44.653H44.6551H44.6571H44.6592H44.6612H44.6632H44.6652H44.6672H44.6691H44.6711H44.673H44.6735C45.0626 39.5879 45.6561 39.4418 46.1413 39.0724C46.6082 38.7169 47 38.1385 47 37.1736C47 36.5464 46.8595 36.113 46.6661 35.8076C46.4727 35.5022 46.2051 35.2913 45.8963 35.1435C45.4431 34.9268 44.9264 34.8566 44.4925 34.8341C44.4564 35.4438 44.3645 36.1458 44.1992 36.8954C44.0101 37.7536 43.7235 38.6801 43.3106 39.6059ZM24.9995 31.6934V31.696V31.7006V31.7052V31.7098V31.7144V31.719V31.7236V31.7283V31.7329V31.7376V31.7423V31.747V31.7517V31.7565V31.7612V31.766V31.7707V31.7755V31.7803V31.7852V31.79V31.7948V31.7997V31.8046V31.8094V31.8143V31.8193V31.8242V31.8291V31.8341V31.8391V31.844V31.849V31.8541V31.8591V31.8641V31.8692V31.8742V31.8793V31.8844V31.8895V31.8946V31.8998V31.9049V31.9101V31.9152V31.9204V31.9256V31.9308V31.9361V31.9413V31.9466V31.9518V31.9571V31.9624V31.9677V31.973V31.9784V31.9837V31.9891V31.9945V31.9998V32.0052V32.0106V32.0161V32.0215V32.027V32.0324V32.0379V32.0434V32.0489V32.0544V32.06V32.0655V32.071V32.0766V32.0822V32.0878V32.0934V32.099V32.1047V32.1103V32.116V32.1216V32.1273V32.133V32.1387V32.1444V32.1502V32.1559V32.1617V32.1675V32.1732V32.179V32.1848V32.1907V32.1965V32.2023V32.2082V32.2141V32.22V32.2259V32.2318V32.2377V32.2436V32.2496V32.2555V32.2615V32.2675V32.2735V32.2795V32.2855V32.2915V32.2976V32.3036V32.3097V32.3158V32.3219V32.328V32.3341V32.3402V32.3464V32.3525V32.3587V32.3649V32.371V32.3772V32.3835V32.3897V32.3959V32.4022V32.4084V32.4147V32.421V32.4273V32.4336V32.4399V32.4462V32.4526V32.4589V32.4653V32.4717V32.478V32.4844V32.4909V32.4973V32.5037V32.5102V32.5166V32.5231V32.5296V32.5361V32.5426V32.5491V32.5556V32.5621V32.5687V32.5752V32.5818V32.5884V32.595V32.6016V32.6082V32.6148V32.6215V32.6281V32.6348V32.6414V32.6481V32.6548V32.6615V32.6682V32.675V32.6817V32.6885V32.6952V32.702V32.7088V32.7156V32.7224V32.7292V32.736V32.7428V32.7497V32.7565V32.7634V32.7703V32.7772V32.7841V32.791V32.7979V32.8048V32.8118V32.8187V32.8257V32.8327V32.8397V32.8466V32.8537V32.8607V32.8677V32.8747V32.8818V32.8888V32.8959V32.903V32.9101V32.9172V32.9243V32.9314V32.9385V32.9457V32.9528V32.96V32.9672V32.9743V32.9815V32.9887V32.9959V33.0032V33.0104V33.0176V33.0249V33.0322V33.0394V33.0467V33.054V33.0613V33.0686V33.0759V33.0833V33.0906V33.098V33.1053V33.1127V33.1201V33.1275V33.1349V33.1423V33.1497V33.1571V33.1646V33.172V33.1795V33.1869V33.1944V33.2019V33.2094V33.2169V33.2244V33.2319V33.2395V33.247V33.2546V33.2621V33.2697V33.2773V33.2849V33.2925V33.3001V33.3077V33.3154V33.323V33.3306V33.3383V33.346V33.3536V33.3613V33.369V33.3767V33.3844V33.3921V33.3999V33.4076V33.4154V33.4231V33.4309V33.4387V33.4464V33.4542V33.462V33.4698V33.4777V33.4855V33.4933V33.5012V33.509V33.5169V33.5248V33.5326V33.5405V33.5484V33.5563V33.5643V33.5722V33.5801V33.5881V33.596V33.604V33.6119V33.6199V33.6279V33.6359V33.6439V33.6519V33.6599V33.6679V33.676V33.684V33.6921V33.7001V33.7082V33.7163V33.7244V33.7325V33.7406V33.7487V33.7568V33.7649V33.773V33.7812V33.7893V33.7975V33.8057V33.8138V33.822V33.8302V33.8384V33.8466V33.8548V33.8631V33.8713V33.8795V33.8878V33.896V33.9043V33.9126V33.9208V33.9291V33.9374V33.9457V33.954V33.9623V33.9707V33.979V33.9873V33.9957V34.004V34.0124V34.0208V34.0292V34.0375V34.0459V34.0543V34.0627V34.0712V34.0796V34.088V34.0965V34.1049V34.1133V34.1218V34.1303V34.1388V34.1472V34.1557V34.1642C24.9995 34.9142 25.0632 35.6218 25.1792 36.2878H43.303C43.4443 35.5405 43.5051 34.8646 43.5103 34.319C43.5108 34.2678 43.5108 34.2178 43.5103 34.1691L43.5103 34.1642V31.6934H24.9995ZM43.0739 37.2878H25.3993C26.5055 41.4194 29.6593 43.7921 31.6054 44.5058H31.6097H31.6157H31.6217H31.6277H31.6338H31.6399H31.646H31.6522H31.6584H31.6647H31.6709H31.6772H31.6836H31.6899H31.6963H31.7028H31.7092H31.7157H31.7223H31.7288H31.7354H31.742H31.7487H31.7554H31.7621H31.7688H31.7756H31.7824H31.7893H31.7962H31.8031H31.81H31.817H31.824H31.831H31.838H31.8451H31.8522H31.8594H31.8666H31.8738H31.881H31.8883H31.8956H31.9029H31.9103H31.9177H31.9251H31.9325H31.94H31.9475H31.9551H31.9626H31.9702H31.9779H31.9855H31.9932H32.0009H32.0087H32.0164H32.0242H32.0321H32.0399H32.0478H32.0557H32.0637H32.0716H32.0796H32.0876H32.0957H32.1038H32.1119H32.12H32.1282H32.1364H32.1446H32.1529H32.1611H32.1694H32.1778H32.1861H32.1945H32.2029H32.2114H32.2199H32.2283H32.2369H32.2454H32.254H32.2626H32.2712H32.2799H32.2886H32.2973H32.306H32.3148H32.3235H32.3324H32.3412H32.3501H32.359H32.3679H32.3768H32.3858H32.3948H32.4038H32.4128H32.4219H32.431H32.4401H32.4493H32.4584H32.4676H32.4768H32.4861H32.4954H32.5047H32.514H32.5233H32.5327H32.5421H32.5515H32.5609H32.5704H32.5799H32.5894H32.5989H32.6085H32.6181H32.6277H32.6373H32.647H32.6567H32.6664H32.6761H32.6858H32.6956H32.7054H32.7152H32.7251H32.7349H32.7448H32.7547H32.7647H32.7746H32.7846H32.7946H32.8046H32.8147H32.8247H32.8348H32.8449H32.8551H32.8652H32.8754H32.8856H32.8958H32.9061H32.9163H32.9266H32.9369H32.9472H32.9576H32.968H32.9784H32.9888H32.9992H33.0097H33.0201H33.0306H33.0412H33.0517H33.0623H33.0728H33.0834H33.0941H33.1047H33.1154H33.126H33.1367H33.1475H33.1582H33.169H33.1797H33.1905H33.2014H33.2122H33.2231H33.2339H33.2448H33.2558H33.2667H33.2777H33.2886H33.2996H33.3106H33.3217H33.3327H33.3438H33.3549H33.366H33.3771H33.3882H33.3994H33.4106H33.4218H33.433H33.4442H33.4555H33.4668H33.478H33.4894H33.5007H33.512H33.5234H33.5348H33.5461H33.5576H33.569H33.5804H33.5919H33.6034H33.6149H33.6264H33.6379H33.6495H33.661H33.6726H33.6842H33.6958H33.7074H33.7191H33.7307H33.7424H33.7541H33.7658H33.7775H33.7893H33.801H33.8128H33.8246H33.8364H33.8482H33.8601H33.8719H33.8838H33.8957H33.9076H33.9195H33.9314H33.9433H33.9553H33.9673H33.9792H33.9912H34.0033H34.0153H34.0273H34.0394H34.0515H34.0635H34.0756H34.0878H34.0999H34.112H34.1242H34.1363H34.1485H34.1607H34.1729H34.1852H34.1974H34.2096H34.2219H34.2342H34.2465H34.2588H34.2711H34.2834H34.2958H34.3081H34.3205H34.3329H34.3452H34.3577H34.3701H34.3825H34.3949H34.4074H34.4199H34.4323H34.4448H34.4573H34.4698H34.4824H34.4949H34.5074H34.52H34.5326H34.5451H34.5577H34.5703H34.583H34.5956H34.6082H34.6209H34.6335H34.6462H34.6589H34.6716H34.6843H34.697H34.7097H34.7224H34.7352H34.7479H34.7607H34.7735H34.7862H34.799H34.8118H34.8246H34.8375H34.8503H34.8631H34.876H34.8888H34.9017H34.9146H34.9275H34.9404H34.9533H34.9662H34.9791H34.992H35.005H35.0179H35.0309H35.0438H35.0568H35.0698H35.0828H35.0958H35.1088H35.1218H35.1348H35.1479H35.1609H35.1739H35.187H35.2001H35.2131H35.2262H35.2393H35.2524H35.2655H35.2786H35.2917H35.3048H35.3179H35.3311H35.3442H35.3574H35.3705H35.3837H35.3968H35.41H35.4232H35.4364H35.4496H35.4628H35.476H35.4892H35.5024H35.5156H35.5288H35.5421H35.5553H35.5686H35.5818H35.5951H35.6083H35.6216H35.6349H35.6481H35.6614H35.6747H35.688H35.7013H35.7146H35.7279H35.7412H35.7545H35.7678H35.7812H35.7945H35.8078H35.8212H35.8345H35.8478H35.8612H35.8745H35.8879H35.9012H35.9146H35.928H35.9413H35.9547H35.9681H35.9815H35.9949H36.0082H36.0216H36.035H36.0484H36.0618H36.0752H36.0886H36.102H36.1154H36.1288H36.1423H36.1557H36.1691H36.1825H36.1959H36.2094H36.2228H36.2362H36.2496H36.2631H36.2765H36.2899H36.3034H36.3168H36.3303H36.3437H36.3571H36.3706H36.384H36.3975H36.4109H36.4244H36.4378H36.4513H36.4647H36.4782H36.4916H36.5051H36.5185H36.532H36.5454H36.5589H36.5723H36.5858H36.5992H36.6127H36.6261H36.6396H36.653H36.6665H36.6799H36.6934H36.7068H36.7203H36.7337H36.7472H36.7606H36.7741H36.7875H36.8009H36.8144H36.8278H36.8413H36.8547H36.8681H36.8816H36.895H36.9084H36.9218H36.9353H36.9487H36.9621H36.9755H36.989H37.0024H37.0158H37.0292H37.0426H37.0547C39.5073 43.5249 41.0852 41.7568 42.0705 39.874C42.5218 39.0116 42.8476 38.127 43.0739 37.2878Z" fill="#0A111B"/>
</svg>
