<svg width="73" height="69" viewBox="0 0 73 69" fill="none" xmlns="http://www.w3.org/2000/svg">
<rect width="50" height="50" transform="matrix(0.727013 -0.686624 0.727013 0.686624 0 34.5061)" fill="#D9E1E2"/>
<path fill-rule="evenodd" clip-rule="evenodd" d="M41.8821 27H39.8261C38.9977 27 38.3261 27.6716 38.3261 28.5V32.0018H33.671V28.5C33.671 27.6716 32.9994 27 32.171 27H30.1151C29.4464 27 28.8799 27.4375 28.6863 28.0419C28.5734 28.0147 28.4554 28.0003 28.3341 28.0003H27.2968C26.4684 28.0003 25.7968 28.6719 25.7968 29.5003V32.0018H25.4972C24.6687 32.0018 23.9972 32.6734 23.9972 33.5018V35.503C23.9972 36.3314 24.6687 37.003 25.4972 37.003H25.7968V39.5044C25.7968 40.3328 26.4684 41.0044 27.2968 41.0044H28.3341C28.4554 41.0044 28.5733 40.99 28.6863 40.9628C28.8799 41.5673 29.4464 42.0048 30.1151 42.0048H32.171C32.9994 42.0048 33.671 41.3332 33.671 40.5048V37.003H38.3261V40.5048C38.3261 41.3332 38.9977 42.0048 39.8261 42.0048H41.8821C42.5508 42.0048 43.1173 41.5673 43.3109 40.9628C43.4238 40.99 43.5418 41.0044 43.6631 41.0044H44.7003C45.5288 41.0044 46.2003 40.3328 46.2003 39.5044V37.003H46.5C47.3284 37.003 48 36.3314 48 35.503V33.5018C48 32.6734 47.3284 32.0018 46.5 32.0018H46.2003V29.5003C46.2003 28.6719 45.5288 28.0003 44.7003 28.0003H43.6631C43.5417 28.0003 43.4238 28.0147 43.3108 28.0419C43.1172 27.4375 42.5507 27 41.8821 27ZM26.7968 32.0018H27.0158V33.0018V36.003V37.003H26.7968V39.5044C26.7968 39.7805 27.0207 40.0044 27.2968 40.0044H28.3341C28.4383 40.0044 28.535 39.9726 28.6151 39.9181V29.0867C28.535 29.0322 28.4383 29.0003 28.3341 29.0003H27.2968C27.0207 29.0003 26.7968 29.2242 26.7968 29.5003V32.0018ZM25.7968 36.003H25.4972C25.2681 36.003 25.075 35.8489 25.0158 35.6387C25.0037 35.5955 24.9972 35.55 24.9972 35.503V33.5018C24.9972 33.4548 25.0037 33.4093 25.0158 33.3661C25.075 33.1559 25.2681 33.0018 25.4972 33.0018H25.7968V36.003ZM29.6151 28.5V28.7194C29.7541 28.9469 29.8341 29.2143 29.8341 29.5003V39.5044C29.8341 39.7905 29.7541 40.0578 29.6151 40.2853V40.5048C29.6151 40.781 29.8389 41.0048 30.1151 41.0048H32.171C32.4472 41.0048 32.671 40.781 32.671 40.5048V37.003H32.4519V36.003V33.0018V32.0018H32.671V28.5C32.671 28.2239 32.4472 28 32.171 28H30.1151C29.8389 28 29.6151 28.2239 29.6151 28.5ZM33.671 33.0018V36.003H34.4519H37.5451H38.3261V33.0018H37.5451H34.4519H33.671ZM39.3261 28.5V32.0018H39.5451V33.0018V36.003V37.003H39.3261V40.5048C39.3261 40.781 39.55 41.0048 39.8261 41.0048H41.8821C42.1582 41.0048 42.3821 40.781 42.3821 40.5048V40.2853C42.2431 40.0578 42.1631 39.7905 42.1631 39.5044V29.5003C42.1631 29.2143 42.2431 28.9469 42.3821 28.7195V28.5C42.3821 28.2239 42.1582 28 41.8821 28H39.8261C39.55 28 39.3261 28.2239 39.3261 28.5ZM43.3821 29.0867C43.4622 29.0322 43.5589 29.0003 43.6631 29.0003H44.7003C44.9765 29.0003 45.2003 29.2242 45.2003 29.5003V32.0018H44.9814V33.0018V36.003V37.003H45.2003V39.5044C45.2003 39.7805 44.9765 40.0044 44.7003 40.0044H43.6631C43.5589 40.0044 43.4622 39.9726 43.3821 39.918V29.0867ZM46.5 33.0018H46.2003V36.003H46.5C46.7291 36.003 46.9222 35.8489 46.9814 35.6387C46.9935 35.5955 47 35.55 47 35.503V33.5018C47 33.4548 46.9935 33.4093 46.9814 33.3661C46.9222 33.1559 46.7291 33.0018 46.5 33.0018Z" fill="#0A111B"/>
</svg>
