<svg width="73" height="70" viewBox="0 0 73 70" fill="none" xmlns="http://www.w3.org/2000/svg">
<rect width="50" height="50" transform="matrix(0.727013 -0.686624 0.727013 0.686624 0 35.1687)" fill="#D9E1E2"/>
<path fill-rule="evenodd" clip-rule="evenodd" d="M32.3395 25.8014L31.9953 25.4829L31.6554 25.806L28.2495 29.0441L28.0941 29.1919V29.4065V37.0013L28.0296 37.2208H27.1683C26.8922 37.2208 26.6683 37.4446 26.6683 37.7208C26.6683 37.9969 26.8922 38.2208 27.1683 38.2208H27.7361L27.5069 39.0017H26.4554C26.1793 39.0017 25.9554 39.2256 25.9554 39.5017C25.9554 39.7779 26.1793 40.0017 26.4554 40.0017H27.2133L26.9841 40.7827H25.9999C25.7238 40.7827 25.4999 41.0065 25.4999 41.2827C25.4999 41.5588 25.7238 41.7827 25.9999 41.7827H26.6906L26.4376 42.6446H25.4999C25.2238 42.6446 24.9999 42.8684 24.9999 43.1446C24.9999 43.4207 25.2238 43.6446 25.4999 43.6446H26.144L25.8435 44.6684H25C24.7239 44.6684 24.5 44.8922 24.5 45.1684C24.5 45.4445 24.7239 45.6684 25 45.6684H26.2178H27.6436H33.6634H35.4999H42.4851H44.8614H47C47.2761 45.6684 47.5 45.4445 47.5 45.1684C47.5 44.8922 47.2761 44.6684 47 44.6684H46.7901C46.9351 44.374 46.9999 44.0337 46.9999 43.6686C46.9999 43.2014 46.8371 42.6957 46.4764 42.3018C46.1067 41.898 45.5591 41.6446 44.8614 41.6446H43.6598L35.9999 33.0494V29.4065V29.1879L35.8395 29.0395L32.3395 25.8014ZM28.8837 37.8616L28.9684 37.5731H34.9999V44.6684H34.1634V41.6065C34.1634 41.4111 34.1402 41.0629 34.0375 40.6782C33.9355 40.2959 33.7455 39.8422 33.3871 39.4758C32.8239 38.9003 32.228 38.6069 31.6299 38.6662C31.0355 38.7251 30.5981 39.1166 30.3139 39.5524L30.3065 39.5636L30.2998 39.5753L27.3551 44.6684H26.8857L27.2916 43.2854L27.8382 41.4235L28.3609 39.6425L28.8837 37.8616ZM29.0941 36.5731H34.9999V33.2398V29.9065H29.0941V36.5731ZM29.8456 28.9065H34.2232L32.0046 26.8539L29.8456 28.9065ZM35.9999 44.6684V38.418L41.3933 44.6684H35.9999ZM44.8614 44.6684H42.7141L35.9999 36.8873V34.5524L43.0624 42.4772L43.2115 42.6446H43.4356H44.8614C45.3022 42.6446 45.5739 42.797 45.7389 42.9771C45.9128 43.167 45.9999 43.4234 45.9999 43.6686C45.9999 44.0738 45.8872 44.295 45.746 44.4229C45.5958 44.5589 45.3268 44.6684 44.8614 44.6684ZM33.1634 41.6065V44.6684H28.5102L31.1584 40.0882C31.3474 39.8028 31.5488 39.6791 31.7285 39.6613C31.9067 39.6437 32.2216 39.7146 32.6723 40.1752C32.8684 40.3756 32.9952 40.6504 33.0714 40.936C33.1469 41.2191 33.1634 41.478 33.1634 41.6065ZM33 33.1685C33 33.7208 32.5523 34.1685 32 34.1685C31.4477 34.1685 31 33.7208 31 33.1685C31 32.6163 31.4477 32.1685 32 32.1685C32.5523 32.1685 33 32.6163 33 33.1685ZM34 33.1685C34 34.2731 33.1046 35.1685 32 35.1685C30.8954 35.1685 30 34.2731 30 33.1685C30 32.064 30.8954 31.1685 32 31.1685C33.1046 31.1685 34 32.064 34 33.1685Z" fill="#0A111B"/>
</svg>
