<svg width="73" height="70" viewBox="0 0 73 70" fill="none" xmlns="http://www.w3.org/2000/svg">
<rect width="50" height="50" transform="matrix(0.727013 -0.686624 0.727013 0.686624 0 34.8311)" fill="#D9E1E2"/>
<path fill-rule="evenodd" clip-rule="evenodd" d="M30.7148 24.3311H31.2148H39.7864H40.2864V24.8311V28.0893H45.0594H47.001H47.501V28.5893V47.8318V48.3318H47.001H45.0594H27.7341H24.0003H23.5003V47.8318V40.7728V40.7537L23.5017 40.7347C23.5316 40.3441 23.671 39.7657 24.0091 39.2697C24.1165 39.1121 24.2451 38.962 24.3964 38.8294V28.5893V28.0893H24.8964H26.838H30.7148V24.8311V24.3311ZM30.7148 29.0893H27.338V30.0436H30.7148V29.0893ZM30.7148 31.0436H27.338V31.8476H30.7148V31.0436ZM31.7148 31.8476H39.2864V30.5436V28.5893V25.3311H31.7148V28.5893V30.5436V31.8476ZM40.2864 31.8476H44.5594V31.0436H40.2864V31.8476ZM40.2864 30.0436H44.5594V29.0893H40.2864V30.0436ZM45.5594 29.0893V30.5436V32.3476V34.3019V36.1059V37.9099V39.7139V47.3318H46.501V29.0893H45.5594ZM44.5594 47.3318V39.7139V37.9099V36.1059V34.3019V32.8476H39.7864H31.2148H27.338V34.3019V36.1059V37.9099V38.8985C27.4362 38.9862 27.5252 39.0802 27.6053 39.1777C27.8543 39.4809 28.0203 39.8202 28.1215 40.1225H41.8903H42.3903V40.6225V42.5768V43.0768H41.8903H28.2341V47.3318H44.5594ZM27.2341 47.3318V43.0768H26.838C26.608 43.0768 26.2746 43.0115 25.9845 42.8013C25.6691 42.5727 25.4419 42.1972 25.4419 41.6748C25.4419 41.1573 25.6631 40.7754 25.945 40.5238C26.2122 40.2854 26.5271 40.1676 26.7553 40.1294L26.7964 40.1225H26.838H27.0372C26.9811 40.0165 26.9132 39.9106 26.8325 39.8123C26.8046 39.7784 26.7754 39.7455 26.7447 39.7139H26.338V39.4271C26.1822 39.3586 26.002 39.3185 25.7925 39.3185C25.3325 39.3185 25.0392 39.534 24.8353 39.833C24.6232 40.1443 24.5232 40.5324 24.5003 40.7933V47.3318H27.2341ZM26.338 38.3784V37.9099V36.1059V34.3019V32.3476V30.5436V29.0893H25.3964V38.3517C25.5212 38.3301 25.6532 38.3185 25.7925 38.3185C25.9873 38.3185 26.169 38.3398 26.338 38.3784ZM33.6564 26.2854H34.1564H36.098C36.2464 26.2854 36.7147 26.2959 37.1569 26.5713C37.64 26.8721 38.0004 27.4295 38.0004 28.3311C38.0004 28.7164 37.9192 29.0418 37.7659 29.308C37.6119 29.5755 37.4014 29.7546 37.188 29.871C36.7869 30.0898 36.3684 30.0894 36.2537 30.0893L36.2474 30.0893H34.6564V31.3311H33.6564V29.5893V26.7854V26.2854ZM34.6564 29.0893H36.2474C36.3415 29.0893 36.5412 29.0847 36.7091 28.9931C36.7841 28.9522 36.8495 28.8954 36.8993 28.809C36.9498 28.7213 37.0004 28.5748 37.0004 28.3311C37.0004 27.7326 36.7841 27.5172 36.6283 27.4202C36.4315 27.2976 36.1986 27.2854 36.098 27.2854H34.6564V29.0893ZM26.8885 41.1225C26.8143 41.1413 26.7026 41.188 26.6109 41.2699C26.5194 41.3515 26.4419 41.4707 26.4419 41.6748C26.4419 41.7843 26.464 41.8514 26.4849 41.8921C26.5059 41.9331 26.5347 41.965 26.5713 41.9915C26.6547 42.0519 26.7693 42.0768 26.838 42.0768H27.7341H41.3903V41.1225H27.7341H26.8885Z" fill="#0A111B"/>
</svg>
