<svg width="73" height="70" viewBox="0 0 73 70" fill="none" xmlns="http://www.w3.org/2000/svg">
<rect width="50" height="50" transform="matrix(0.727013 -0.686624 0.727013 0.686624 0 34.8311)" fill="#D9E1E2"/>
<path fill-rule="evenodd" clip-rule="evenodd" d="M36.0051 23L36.1572 23.0479L46.7662 26.3911L47.1159 26.5013V26.868V32.202C47.2699 32.3647 47.3892 32.5837 47.4374 32.8198C47.5025 33.1393 47.439 33.4813 47.2105 33.7837L47.9566 35.4555L48 35.5528V35.6593C48 35.8858 47.9349 36.2128 47.7262 36.4969C47.4992 36.8061 47.1284 37.026 46.6159 37.026C46.1005 37.026 45.7288 36.8006 45.5251 36.4546C45.3447 36.1482 45.3312 35.8077 45.3634 35.5872L45.3689 35.5494L45.38 35.513C45.4886 35.1581 45.7507 34.3722 46.0266 33.7541C45.8131 33.4458 45.7381 33.118 45.8041 32.7972C45.8547 32.5515 45.9795 32.3553 46.1159 32.2115V27.5422L43.5796 28.3119V33.059V33.2619L43.4382 33.4074C42.5132 34.3596 39.7946 36.1593 36.0069 36.1593C32.2178 36.1593 29.579 34.3582 28.6931 33.3981L28.5605 33.2545V33.059V28.2962L25.502 27.3454L23.995 26.877L25.4969 26.3922L35.8533 23.049L36.0051 23ZM29.5605 28.607V32.855C30.4064 33.6713 32.7126 35.1593 36.0069 35.1593C39.3013 35.1593 41.6861 33.6711 42.5796 32.8478V28.6153L36.1521 30.5658L36.0051 30.6104L35.8585 30.5648L29.5605 28.607ZM43.3657 26.368L36.0087 24.0496L27.3059 26.859L29.2089 27.4505L36.0087 29.5643L42.9344 27.4626L43.2463 27.368H36.0069V26.368H43.3657ZM46.63 34.9366C46.5131 35.2565 46.4127 35.5593 46.3501 35.7606C46.3489 35.7843 46.3496 35.8136 46.3541 35.8445C46.3606 35.8894 46.3732 35.924 46.3869 35.9473C46.3987 35.9673 46.4121 35.981 46.4328 35.9924C46.4548 36.0044 46.508 36.026 46.6159 36.026C46.7229 36.026 46.788 36.0047 46.8268 35.985C46.8658 35.9653 46.8955 35.9386 46.9202 35.905C46.9558 35.8566 46.9782 35.7965 46.9899 35.7431L46.63 34.9366ZM26.7688 35.6452C27.2057 35.2844 27.6366 35.2831 27.7975 35.2831H27.9207L28.0297 35.3403C30.2185 36.4881 32.0312 37.33 33.6699 37.9989C34.2288 38.2271 34.7679 38.4353 35.295 38.6287C37.0275 39.2643 38.6344 39.7415 40.4077 40.2464C41.6 40.4337 42.3671 41.1074 42.7143 41.9928C43.0534 42.8577 42.9721 43.869 42.6094 44.7363C42.2457 45.606 41.573 46.3931 40.6502 46.7706C39.7079 47.1562 38.5789 47.0842 37.3898 46.3641C35.9339 45.4825 34.4926 44.7597 33.0703 44.1558C33.1462 44.3606 33.2538 44.5417 33.3664 44.6989C33.4576 44.8262 33.5417 44.9246 33.6187 45.0146C33.6429 45.0428 33.6663 45.0703 33.6891 45.0975C33.7113 45.1241 33.7369 45.1555 33.7601 45.1873C33.7789 45.2131 33.8178 45.268 33.8465 45.3378C33.8627 45.3772 33.9607 45.6213 33.7849 45.8556C33.6276 46.0654 33.3945 46.065 33.3563 46.0649H33.3546C33.2214 46.0649 33.0918 46.0282 33.0036 45.9989C32.9618 45.9851 32.9194 45.9695 32.8773 45.9529C32.8597 45.9785 32.8394 46.0038 32.8161 46.0282C32.7264 46.1218 32.6004 46.1902 32.451 46.2027C32.3143 46.2141 32.2006 46.1752 32.1242 46.1377L32.0841 46.1181L32.0481 46.0916C31.5028 45.6907 31.2328 45.0391 31.0972 44.4762C31.0683 44.3563 31.0445 44.2362 31.0252 44.1179C30.6769 44.5076 30.289 44.7575 29.9382 44.9096C29.6461 45.0362 29.3758 45.0969 29.1704 45.1137C29.0766 45.1214 28.9604 45.1231 28.8524 45.0983C28.8225 45.0914 28.781 45.0798 28.7354 45.059C28.695 45.0405 28.6175 44.9997 28.5487 44.9182C28.4686 44.8234 28.4061 44.6769 28.4339 44.5056C28.4369 44.4868 28.4409 44.4689 28.4456 44.4518C28.368 44.4285 28.2906 44.4051 28.2263 44.3841C28.1873 44.3713 28.1458 44.3571 28.1083 44.3423L28.1058 44.3413C28.0829 44.3324 28.0069 44.3026 27.9384 44.2503C27.9167 44.2338 27.8768 44.201 27.8383 44.1503C27.8017 44.1021 27.7365 43.9982 27.7348 43.8496C27.7328 43.6821 27.8115 43.5545 27.8912 43.4784C27.9604 43.4123 28.0315 43.3819 28.0654 43.3692C28.1342 43.3432 28.1954 43.3371 28.2178 43.335C28.2488 43.3321 28.2784 43.3314 28.3027 43.3314C28.5612 43.3314 28.9034 43.1952 29.2669 42.9615C29.3295 42.9213 29.3906 42.8796 29.4497 42.8372C27.9958 42.3872 26.5658 42.0298 25.1635 41.7194L24.9498 41.6721L24.8396 41.483C24.1796 40.3506 24.0783 39.378 24.2867 38.6033C24.491 37.8438 24.9782 37.3319 25.397 37.0856L25.6066 36.9623L25.833 37.0511L25.9293 37.0888C26.1362 36.3795 26.4298 35.925 26.7688 35.6452ZM26.8731 37.4252C28.1784 37.8459 29.8786 38.489 30.6323 38.7846L30.2672 39.7156C29.4266 39.3859 27.4303 38.6329 26.1376 38.2429L26.1182 38.2371L26.0994 38.2297L25.723 38.0821C25.5426 38.2441 25.3488 38.5044 25.2524 38.863C25.1346 39.3011 25.1484 39.9388 25.5994 40.792C27.223 41.1564 28.8954 41.5885 30.6047 42.1579C30.5147 40.9033 30.828 39.9558 31.337 39.2722C31.5919 38.9298 31.8889 38.6633 32.1933 38.4615C30.8461 37.8756 29.3737 37.171 27.685 36.2885C27.6062 36.2989 27.5112 36.329 27.4054 36.4163C27.2597 36.5366 27.0439 36.8091 26.8731 37.4252ZM33.4348 38.9829C33.046 39.0825 32.5253 39.3508 32.1391 39.8694C31.7467 40.3963 31.4571 41.2307 31.6508 42.5224C31.6984 42.5397 31.746 42.5572 31.7937 42.5748C31.6535 41.3766 32.0104 40.463 32.6153 39.8102C32.9134 39.4886 33.2612 39.2415 33.6168 39.0561C33.5564 39.0319 33.4957 39.0075 33.4348 38.9829ZM35.0693 39.6109C34.5286 39.7001 33.8296 39.9711 33.3488 40.49C32.8924 40.9824 32.5765 41.7572 32.8868 42.9972C34.0601 43.472 35.2477 44.023 36.4464 44.6715C36.2797 44.0681 36.273 43.5056 36.3315 43.0278C36.3827 42.61 36.4828 42.2605 36.5604 42.0145C36.3556 41.9349 36.084 41.8346 35.7837 41.7264C35.1632 41.5027 34.4336 41.2499 33.951 41.0853L34.2738 40.1389C34.7595 40.3045 35.495 40.5593 36.1227 40.7856C36.4361 40.8985 36.726 41.0055 36.9455 41.0913C37.0545 41.1339 37.1512 41.1732 37.2264 41.2065C37.2635 41.2229 37.3013 41.2405 37.3352 41.2582C37.3359 41.2586 37.3367 41.259 37.3376 41.2595C37.3565 41.2692 37.4303 41.3074 37.4936 41.3695C37.5963 41.4701 37.6309 41.5856 37.6433 41.6533C37.6558 41.7217 37.6531 41.78 37.6501 41.8147C37.6441 41.8834 37.6276 41.9478 37.6164 41.9889C37.6 42.0487 37.5745 42.1273 37.5495 42.2047C37.5399 42.2343 37.5304 42.2638 37.5214 42.2919C37.45 42.5169 37.3659 42.8077 37.3241 43.1493C37.2442 43.8025 37.3156 44.6551 37.9872 45.5557C38.9098 46.0889 39.6797 46.0872 40.2715 45.8451C40.8998 45.5881 41.4033 45.0286 41.6868 44.3505C41.9714 43.67 42.0085 42.9324 41.7833 42.3579C41.5706 41.8154 41.1058 41.3655 40.2432 41.2329C40.1449 41.2277 39.9587 41.2865 39.7239 41.5277C39.4945 41.7635 39.2874 42.1086 39.1666 42.4834C39.0451 42.8609 39.0259 43.2207 39.1101 43.499C39.1858 43.749 39.3521 43.9652 39.6951 44.0973C39.7801 44.1175 39.84 44.1031 39.8909 44.0758C39.9548 44.0415 40.0262 43.9728 40.0851 43.867C40.1438 43.7615 40.176 43.6434 40.1804 43.5428C40.185 43.4372 40.1585 43.395 40.1565 43.3923C39.9887 43.173 40.0305 42.8592 40.2498 42.6914C40.4691 42.5236 40.783 42.5654 40.9507 42.7847C41.1381 43.0297 41.1906 43.328 41.1794 43.5861C41.168 43.8492 41.0897 44.1181 40.959 44.3531C40.6998 44.8189 40.1481 45.263 39.4084 45.0558L39.3893 45.0505L39.3707 45.0437C38.7174 44.8035 38.3205 44.3423 38.1529 43.7886C37.9925 43.2582 38.0522 42.6816 38.2148 42.1768C38.3719 41.689 38.6389 41.2238 38.9675 40.872C37.6611 40.4895 36.4013 40.0957 35.0693 39.6109ZM36.8718 42.1444C36.8828 42.1501 36.8805 42.1497 36.8701 42.1435C36.8707 42.1438 36.8713 42.1441 36.8718 42.1444ZM30.2435 43.4909C30.0167 43.7334 29.776 43.8861 29.5666 43.9805C29.5623 43.9721 29.5579 43.9637 29.5531 43.9553C29.6422 43.9058 29.7274 43.8543 29.8076 43.8027C29.9624 43.7033 30.1091 43.5969 30.2435 43.4909ZM28.7938 44.56C28.7937 44.56 28.7922 44.5595 28.7895 44.5581C28.7925 44.5593 28.7939 44.56 28.7938 44.56ZM28.4661 43.4082C28.4663 43.4082 28.4692 43.4093 28.4742 43.4117C28.4684 43.4094 28.4659 43.4082 28.4661 43.4082Z" fill="#0A111B"/>
</svg>
